<?xml version="1.0" encoding="UTF-8"?>
<!DOCTYPE svg PUBLIC "-//W3C//DTD SVG 1.1//EN" "http://www.w3.org/Graphics/SVG/1.1/DTD/svg11.dtd">
<!-- Creator: CorelDRAW 2018 (64-Bit) -->
<svg xmlns="http://www.w3.org/2000/svg" xml:space="preserve" width="1200px" height="300px" version="1.1" style="shape-rendering:geometricPrecision; text-rendering:geometricPrecision; image-rendering:optimizeQuality; fill-rule:evenodd; clip-rule:evenodd"
viewBox="0 0 1200 300"
 xmlns:xlink="http://www.w3.org/1999/xlink">
 <defs>
  <style type="text/css">
   <![CDATA[
    .fil1 {fill:white}
    .fil0 {fill:#DD301D}
   ]]>
  </style>
 </defs>
 <g id="Слой_x0020_1">
  <metadata id="CorelCorpID_0Corel-Layer"/>
  <g id="_1649454810688">
   <path class="fil0" d="M104.2 198.01c38.73,0.43 22.64,10.54 57.14,-46.94 9.54,-15.89 18.17,-33.16 28.42,-48.46l70.54 120.09 -170.7 0.94 -14.59 24.68 229.72 0.49 -114.54 -197.62 -85.99 146.82z"/>
   <path class="fil0" d="M775.57 205.89l15.57 0.38 0.08 -30.21c57.56,29.12 68.81,-44.55 33.96,-57.38 -21.53,-7.93 -41.95,2.72 -47.56,18.88 -3.77,10.84 -2.05,53.82 -2.05,68.33z"/>
   <path class="fil0" d="M1015.69 175.66l1.5 2.22c0.7,2.53 0.49,1.75 0.61,4.39l14.68 0.17 0 -65.06 -13.32 -0.61 -3.11 7.27c-21.09,-17.9 -52.71,-4.22 -53.27,24.44 -0.61,31.2 36.16,46.19 52.91,27.18z"/>
   <path class="fil0" d="M481.29 182.48l14.08 0.15 0.06 -42.35c4.57,5.6 7.56,11.46 11.52,18.28 13.49,23.29 12.52,24.27 27.18,0.18 3.66,-6.01 7.07,-12.06 11.23,-18.23 1.67,12.68 0.74,28.99 0.69,42.12l13.93 0 -0.13 -65.76c-17.11,0 -12.88,-2.54 -25.99,19.42 -4.47,7.48 -7.76,16.05 -13.73,20.74 -3.52,-6.49 -7.73,-14.04 -11.51,-20.67l-8.66 -15.26c-4.57,-5.75 -5.11,-4.23 -18.67,-4.11l0 65.49z"/>
   <path class="fil0" d="M746.01 174.45l-6.7 -10.59c-5.71,2.3 -28.9,16.32 -38.37,-5.49l48.39 -9.1c0.66,-2.53 3.68,-9.46 -5.18,-21.31 -14.3,-19.15 -48.53,-14.26 -57.62,7.23 -7.79,18.44 0.87,36.16 12.53,43.02 17.9,10.54 34.06,4.28 46.95,-3.76z"/>
   <polygon class="fil0" points="593.04,182.63 608.49,182.28 608.47,129.68 640.88,129.89 640.88,182.63 656.19,182.63 656.19,116.87 593.02,116.87 "/>
   <path class="fil0" d="M433.41 175.17l0.02 7.35 14.71 -0.2 -0.09 -65.17 -14.2 -0.34c-5.59,18.71 7.83,51.28 -17.64,52.74 -26.19,1.5 -13.46,-33.82 -17.84,-52.69l-13.7 0.02c-2.8,12.98 -2.36,45.57 4.08,55.61 11.5,17.92 31.41,10.28 44.66,2.68z"/>
   <path class="fil0" d="M918.02 175.51c2.59,3.02 2.01,-4.14 2.47,6.72l14.68 0.17 0 -65.08 -15.41 -0.54c0,13.65 3.31,40.02 -5.36,48.19 -4.54,4.27 -13.23,6.4 -20.49,2.92 -11.07,-5.3 -7.57,-33.63 -7.57,-51.02l-15.45 0.24c0.01,15.62 -2.86,44.45 4.7,55.37 8.15,11.76 33.31,16.57 42.43,3.03z"/>
   <path class="fil0" d="M1056.75 170.67l-1.14 12.3c15.66,1.5 20.86,-0.55 25.14,-13.94 3.59,-11.25 3.52,-26.11 4.1,-38.55l24.71 -0.71 0 52.86 15.43 -0.04 -0.11 -65.7 -46.14 -0.21c-12.62,0.54 -5.64,6.82 -8.95,36.75 -1.45,13.14 -1.81,12.77 -13.04,17.24z"/>
   <path class="fil1" d="M802.62 131.07c-23.41,10.3 -8.92,49.42 16.27,37.5 20.83,-9.87 9.36,-48.78 -16.27,-37.5z"/>
   <path class="fil1" d="M990.21 130.86c-22.56,8.82 -11.1,47.88 15.04,37.91 22.13,-8.45 11.83,-48.41 -15.04,-37.91z"/>
   <path class="fil1" d="M698.71 148.02l36.8 -6.25c-3.15,-8.62 -8.5,-14.72 -21.39,-12.95 -10.55,1.46 -14.28,8.52 -15.41,19.2z"/>
  </g>
 </g>
</svg>
